<?xml version="1.0" standalone="no"?>
<!DOCTYPE svg PUBLIC "-//W3C//DTD SVG 20010904//EN"
 "http://www.w3.org/TR/2001/REC-SVG-20010904/DTD/svg10.dtd">
<svg version="1.0" xmlns="http://www.w3.org/2000/svg"
 width="112.000000pt" height="112.000000pt" viewBox="0 0 112.000000 112.000000"
 preserveAspectRatio="xMidYMid meet">
<metadata>
Created by potrace 1.11, written by Peter Selinger 2001-2013
</metadata>
<g transform="translate(0.000000,112.000000) scale(0.100000,-0.100000)"
fill="#000000" stroke="none">
<path d="M506 1108 c3 -4 11 -5 19 -1 21 7 19 12 -4 10 -11 0 -18 -5 -15 -9z"/>
<path d="M587 1109 c7 -7 15 -10 18 -7 3 3 -2 9 -12 12 -14 6 -15 5 -6 -5z"/>
<path d="M422 1100 c-18 -4 -36 -11 -39 -14 -7 -7 45 2 87 15 35 10 -3 10 -48
-1z"/>
<path d="M620 1107 c3 -3 19 -7 37 -10 17 -3 38 -8 45 -12 10 -6 10 -5 2 4 -7
7 -29 15 -50 18 -22 3 -37 3 -34 0z"/>
<path d="M730 1080 c20 -13 33 -13 25 0 -3 6 -14 10 -23 10 -15 0 -15 -2 -2
-10z"/>
<path d="M300 1050 c-50 -25 -186 -138 -177 -146 2 -2 29 21 62 52 32 30 88
71 124 89 36 19 62 34 56 34 -5 0 -35 -13 -65 -29z"/>
<path d="M819 1040 c29 -16 61 -35 69 -42 13 -11 14 -11 8 0 -8 14 -106 72
-121 72 -5 0 14 -14 44 -30z"/>
<path d="M910 982 c0 -7 9 -17 21 -24 29 -19 96 -110 125 -171 13 -29 24 -46
24 -39 0 20 -39 91 -80 147 -44 59 -90 103 -90 87z"/>
<path d="M463 916 c-18 -11 -33 -25 -33 -30 0 -5 -16 -29 -37 -54 -34 -41 -36
-50 -40 -121 -1 -42 -6 -93 -9 -114 -4 -25 -1 -45 8 -60 18 -28 39 -84 44
-118 3 -23 -3 -29 -59 -54 -34 -15 -82 -33 -105 -41 -24 -7 -51 -19 -60 -26
-10 -8 -29 -19 -44 -26 -27 -11 -29 -10 -52 36 -29 58 -56 150 -56 190 0 17
-4 33 -8 36 -11 7 3 -86 22 -149 51 -167 209 -314 385 -360 74 -19 198 -21
268 -4 70 17 181 73 236 120 49 42 110 125 140 191 30 64 18 55 -16 -12 -30
-59 -36 -65 -61 -62 -50 6 -136 51 -169 89 -35 40 -84 64 -116 58 -33 -6 -36
18 -11 87 16 44 23 87 24 160 3 98 2 102 -36 180 -23 48 -43 78 -51 75 -6 -2
-28 3 -47 11 -53 22 -82 22 -117 -2z"/>
<path d="M102 878 c-14 -19 -64 -119 -60 -123 2 -2 20 28 40 66 36 67 42 83
20 57z"/>
<path d="M23 705 c-6 -19 -8 -35 -3 -35 8 0 23 60 17 67 -2 1 -8 -13 -14 -32z"/>
<path d="M1086 705 c4 -16 10 -52 14 -80 7 -48 8 -49 8 -10 0 22 -6 58 -14 80
-9 27 -12 30 -8 10z"/>
<path d="M12 635 c0 -16 2 -22 5 -12 2 9 2 23 0 30 -3 6 -5 -1 -5 -18z"/>
<path d="M1 584 c0 -11 3 -14 6 -6 3 7 2 16 -1 19 -3 4 -6 -2 -5 -13z"/>
<path d="M1104 536 c-3 -8 -4 -27 -2 -43 3 -23 5 -20 9 15 5 43 2 53 -7 28z"/>
<path d="M1091 444 c0 -11 3 -14 6 -6 3 7 2 16 -1 19 -3 4 -6 -2 -5 -13z"/>
<path d="M1081 404 c0 -11 3 -14 6 -6 3 7 2 16 -1 19 -3 4 -6 -2 -5 -13z"/>
</g>
</svg>
