<?xml version="1.0" encoding="utf-8"?>
<!-- Generator: Adobe Illustrator 24.0.2, SVG Export Plug-In . SVG Version: 6.00 Build 0)  -->
<svg version="1.1" id="Layer_1" xmlns="http://www.w3.org/2000/svg" xmlns:xlink="http://www.w3.org/1999/xlink" x="0px" y="0px"
	 width="11" height="11" viewBox="0 0 11 11" style="enable-background:new 0 0 11 11;" xml:space="preserve">
<style type="text/css">
	.st0{fill:#434243;}
</style>
<title>Asset 15</title>
<g>
	<g>
		<g>
			<path class="st0" d="M3.5,5.8H0.3C0.1,5.8,0,5.6,0,5.5s0.1-0.3,0.3-0.3h3.3c0.1,0,0.3,0.1,0.3,0.3S3.7,5.8,3.5,5.8z"/>
		</g>
		<g>
			<path class="st0" d="M4.8,4.5H1.5c-0.1,0-0.3-0.1-0.3-0.3S1.4,4,1.5,4h3.3C5,4,5.1,4.1,5.1,4.2S5,4.5,4.8,4.5z"/>
		</g>
		<g>
			<path class="st0" d="M4.8,7H1.5C1.4,7,1.3,6.9,1.3,6.8s0.1-0.3,0.3-0.3h3.3c0.1,0,0.3,0.1,0.3,0.3S5,7,4.8,7z"/>
		</g>
	</g>
	<g>
		<path class="st0" d="M6.7,8.4c-0.1,0-0.2,0-0.3-0.1C6.2,8.2,6,7.9,6,7.7V3.3c0-0.2,0.1-0.4,0.3-0.6s0.4-0.1,0.6,0L10.7,5
			C10.9,5.1,11,5.3,11,5.5S10.9,5.9,10.7,6L7,8.3C6.9,8.3,6.8,8.4,6.7,8.4z M6.7,3.2C6.6,3.2,6.6,3.2,6.7,3.2
			c-0.1,0-0.1,0.1-0.1,0.1v4.4c0,0.1,0,0.1,0.1,0.1c0,0,0.1,0,0.1,0l3.7-2.2c0.1,0,0.1-0.1,0.1-0.1s0-0.1-0.1-0.1L6.7,3.2
			C6.7,3.2,6.7,3.2,6.7,3.2z"/>
	</g>
</g>
</svg>
