<svg xmlns="http://www.w3.org/2000/svg" viewBox="0 0 47.13 51.5"><defs><style>.cls-1{fill:none;stroke:#434143;stroke-miterlimit:10;stroke-width:1.5px;}</style></defs><title>Asset 27</title><g id="Layer_2" data-name="Layer 2"><g id="Layer_2-2" data-name="Layer 2"><path class="cls-1" d="M23.56,50.75a8.71,8.71,0,0,1-4.33-1.16L5.08,41.42a8.68,8.68,0,0,1-4.33-7.5V17.58a8.68,8.68,0,0,1,4.33-7.5L19.23,1.91a8.66,8.66,0,0,1,8.67,0l14.15,8.17a8.68,8.68,0,0,1,4.33,7.5V33.92a8.68,8.68,0,0,1-4.33,7.5L27.9,49.59A8.71,8.71,0,0,1,23.56,50.75Z"/></g></g></svg>