<?xml version="1.0" encoding="utf-8"?>
<!-- Generator: Adobe Illustrator 24.0.2, SVG Export Plug-In . SVG Version: 6.00 Build 0)  -->
<svg version="1.1" id="Layer_1" xmlns="http://www.w3.org/2000/svg" xmlns:xlink="http://www.w3.org/1999/xlink" x="0px" y="0px"
	 viewBox="0 0 11 11" style="enable-background:new 0 0 11 11;" xml:space="preserve">
<style type="text/css">
	.st0{fill:#FFFFFF;}
</style>
<title>Asset 15</title>
<g>
	<path class="st0" d="M1.6,0.5h3.6c0.9,0,2.1,0,2.6,0.4C8.5,1.3,9,2,9,3S8.5,4.8,7.5,5.2l0,0c1.2,0.3,1.9,1.2,1.9,2.4
		c0,1.5-1.1,2.9-3,2.9H1.6V0.5z M2.9,4.8h2.7c1.5,0,2.1-0.5,2.1-1.6c0-1.4-1-1.6-2.1-1.6H2.9V4.8z M2.9,9.4h3.3
		c1.2,0,1.9-0.7,1.9-1.8c0-1.3-1.1-1.7-2.2-1.7h-3C2.9,5.9,2.9,9.4,2.9,9.4z"/>
</g>
</svg>
