<?xml version="1.0" encoding="utf-8"?>
<!-- Generator: Adobe Illustrator 24.0.2, SVG Export Plug-In . SVG Version: 6.00 Build 0)  -->
<svg version="1.1" id="Layer_1" xmlns="http://www.w3.org/2000/svg" xmlns:xlink="http://www.w3.org/1999/xlink" x="0px" y="0px"
	 viewBox="0 0 11 11" style="enable-background:new 0 0 11 11;" xml:space="preserve">
<style type="text/css">
	.st0{fill:#434243;}
</style>
<title>Asset 15</title>
<g>
	<path class="st0" d="M10.7,6.3l-4-4c0,0-0.6-0.6-0.6-0.6C5.6,1.3,5.2,1.1,4.7,1.1H3.1C3,1,2.9,0.9,2.8,0.8C2.4,0.4,2,0.2,1.5,0.1
		C1.1,0,0.6,0.1,0.3,0.4C-0.2,1-0.1,2.1,0.7,2.9C0.8,3,1,3.1,1.2,3.2v1.4c0,0.5,0.2,1,0.6,1.4l4.6,4.6c0.2,0.2,0.5,0.3,0.7,0.3
		s0.5-0.1,0.7-0.3l2.9-2.9C10.9,7.6,11,7.3,11,7S10.9,6.5,10.7,6.3z M1.1,2.5C0.5,1.9,0.3,1.1,0.7,0.8C1,0.4,1.8,0.6,2.4,1.1H2.2
		c-0.6,0-1,0.5-1,1L1.1,2.5C1.1,2.6,1.1,2.6,1.1,2.5z M10.4,7.4l-2.9,2.9c-0.2,0.2-0.6,0.2-0.8,0L2.1,5.6C1.8,5.3,1.7,5,1.7,4.6V3.5
		c0.1,0,0.2,0.1,0.3,0.1c0.1,0,0.2,0,0.3,0c0,0,0,0,0.1,0c0,0.6,0.5,1.1,1.2,1.1c0.6,0,1.2-0.5,1.2-1.2S4.2,2.4,3.5,2.4
		C3,2.4,2.6,2.7,2.5,3.1c-0.2,0-0.5,0-0.8-0.2V2.1c0-0.3,0.2-0.5,0.5-0.5h2.5c0.4,0,0.7,0.1,1,0.4c0,0,0.5,0.5,0.6,0.6l0,0l4.1,4.1
		c0.1,0.1,0.2,0.2,0.2,0.4C10.5,7.2,10.5,7.3,10.4,7.4z M3.2,3.3C3.3,3.2,3.4,3,3.4,2.9c0,0,0.1,0,0.1,0c0.4,0,0.7,0.3,0.7,0.7
		S3.9,4.2,3.5,4.2c-0.4,0-0.7-0.3-0.7-0.7c0,0,0-0.1,0-0.1C3,3.4,3.1,3.3,3.2,3.3z"/>
	<path class="st0" d="M7.6,5C7.6,5,7.6,5,7.6,5C7.3,5,6.9,5.1,6.7,5.4C6.5,5.1,6.2,5,5.8,5C5.5,5,5.2,5.1,4.9,5.4
		C4.7,5.6,4.6,6,4.6,6.4c0,0.1,0,0.3,0.1,0.4c0.1,0.3,0.5,0.8,1.3,1.4c0.2,0.2,0.5,0.4,0.7,0.5c0,0,0,0,0,0l0,0c0,0,0.1,0,0.1,0
		c0,0,0.1,0,0.1,0C7,8.6,7.3,8.4,7.6,8.2c0.8-0.6,1.2-1.1,1.2-1.4c0-0.1,0.1-0.3,0.1-0.4C8.9,5.6,8.3,5,7.6,5z M6.5,5.8
		C6.6,6,6.8,6,6.9,5.8C7,5.6,7.3,5.4,7.6,5.4c0.5,0,0.8,0.4,0.8,0.9c0,0.1,0,0.2,0,0.3c0,0.1-0.2,0.5-1.1,1.2C7.1,8,6.9,8.2,6.8,8.3
		C6.6,8.2,6.3,8,6.2,7.8C5.3,7.1,5.1,6.8,5,6.6c0-0.1,0-0.2,0-0.3c0-0.3,0.1-0.5,0.3-0.7c0.2-0.2,0.4-0.2,0.6-0.2
		C6.1,5.4,6.4,5.6,6.5,5.8z"/>
</g>
</svg>
