<?xml version="1.0" encoding="utf-8"?>
<!-- Generator: Adobe Illustrator 24.0.2, SVG Export Plug-In . SVG Version: 6.00 Build 0)  -->
<svg version="1.1" id="Layer_1" xmlns="http://www.w3.org/2000/svg" xmlns:xlink="http://www.w3.org/1999/xlink" x="0px" y="0px"
	 viewBox="0 0 16.2 15.2" style="enable-background:new 0 0 16.2 15.2;" xml:space="preserve">
<style type="text/css">
	.st0{fill:#424142;}
</style>
<path class="st0" d="M14.7,3.2h-3.5V1.8c0-0.6-0.5-1.1-1.1-1.1H6.1c-0.6,0-1.1,0.5-1.1,1.1v1.4H1.5c-0.6,0-1.1,0.5-1.1,1.1v9.2
	c0,0.6,0.5,1.1,1.1,1.1h13.1c0.6,0,1.1-0.5,1.1-1.1V4.2C15.7,3.6,15.3,3.2,14.7,3.2z M5.7,1.8c0-0.2,0.2-0.4,0.4-0.4H10
	c0.2,0,0.4,0.2,0.4,0.4v1.4H5.7V1.8z M1.5,3.8h13.1c0.2,0,0.4,0.2,0.4,0.4v3.3H9.4V6.5c0-0.2-0.2-0.3-0.3-0.3H7.2
	C7,6.2,6.8,6.3,6.8,6.5v1.1H1.1V4.2C1.1,4,1.3,3.8,1.5,3.8z M8.7,6.8V9H7.5V6.8H8.7z M14.7,13.8H1.5c-0.2,0-0.4-0.2-0.4-0.4V8.2h5.7
	v1.1c0,0.2,0.1,0.3,0.3,0.3H9c0.2,0,0.3-0.2,0.3-0.3V8.2h5.7v5.2C15.1,13.6,14.9,13.8,14.7,13.8z"/>
<g>
	<path class="st0" d="M139.3,14.1c-0.1,0-0.1,0-0.2,0l-4.7-2.5l-4.7,2.5c-0.1,0.1-0.2,0-0.4,0c-0.1-0.1-0.2-0.2-0.1-0.3l0.9-5.3
		l-3.8-3.7c-0.1-0.1-0.1-0.2-0.1-0.3s0.1-0.2,0.3-0.2l5.3-0.8l2.4-4.8c0.1-0.1,0.2-0.2,0.3-0.2c0,0,0,0,0,0c0.1,0,0.2,0.1,0.3,0.2
		l2.4,4.8l5.3,0.8c0.1,0,0.2,0.1,0.3,0.2s0,0.3-0.1,0.3l-3.8,3.7l0.9,5.3c0,0.1,0,0.3-0.1,0.3C139.4,14,139.3,14.1,139.3,14.1z
		 M126.8,4.5l3.7,3.6c0.1,0.1,0.1,0.2,0.1,0.3l-0.9,5l4.5-2.4c0,0,0,0,0,0c0.1,0,0.2,0,0.3,0l4.5,2.4l-0.9-5c0-0.1,0-0.2,0.1-0.3
		l3.7-3.6l-5-0.7c-0.1,0-0.2-0.1-0.3-0.2L134.4-1l-2.3,4.6c0,0.1-0.1,0.2-0.2,0.2L126.8,4.5z M142.3,4.6
		C142.3,4.6,142.3,4.6,142.3,4.6L142.3,4.6z M126.5,4.6L126.5,4.6C126.5,4.6,126.5,4.6,126.5,4.6z M134.5-1.3L134.5-1.3
		C134.5-1.3,134.5-1.3,134.5-1.3z"/>
</g>
</svg>
