<?xml version="1.0" encoding="utf-8"?>
<!-- Generator: Adobe Illustrator 24.0.2, SVG Export Plug-In . SVG Version: 6.00 Build 0)  -->
<svg version="1.1" id="Layer_1" xmlns="http://www.w3.org/2000/svg" xmlns:xlink="http://www.w3.org/1999/xlink" x="0px" y="0px"
	 viewBox="0 0 11 11" style="enable-background:new 0 0 11 11;" xml:space="preserve">
<style type="text/css">
	.st0{fill:#434243;}
</style>
<title>Asset 15</title>
<g>
	<g>
		<g>
			<path class="st0" d="M7.7,7.8c-0.1,0-0.2,0-0.2-0.1c-0.1-0.1,0-0.3,0.1-0.3l2.9-1.8l0.1-0.3l-0.1,0.2L7.5,3.7
				C7.4,3.7,7.4,3.5,7.4,3.4c0.1-0.1,0.2-0.2,0.3-0.1l2.9,1.8C10.9,5.2,11,5.4,11,5.6S10.9,5.9,10.7,6L7.8,7.8
				C7.7,7.8,7.7,7.8,7.7,7.8z"/>
		</g>
		<g>
			<path class="st0" d="M3.3,7.8c0,0-0.1,0-0.1,0L0.3,6C0.1,5.9,0,5.8,0,5.6s0.1-0.4,0.3-0.5l2.9-1.8c0.1-0.1,0.3,0,0.3,0.1
				s0,0.3-0.1,0.3L0.5,5.5v0.1l2.9,1.8c0.1,0.1,0.2,0.2,0.1,0.3C3.5,7.8,3.4,7.8,3.3,7.8z"/>
		</g>
	</g>
	<g>
		<path class="st0" d="M4.4,8.7C4.3,8.7,4.3,8.7,4.4,8.7C4.2,8.6,4.1,8.5,4.1,8.3l2.2-5.9c0-0.1,0.2-0.2,0.3-0.1
			c0.1,0,0.2,0.2,0.1,0.3L4.6,8.5C4.6,8.6,4.5,8.7,4.4,8.7z"/>
	</g>
</g>
</svg>
