<svg width="11" height="11" viewBox="0 0 11 11" fill="none" xmlns="http://www.w3.org/2000/svg">
<g clip-path="url(#clip0_393_55)">
<path d="M10.3798 0.0107422L9.46475 9.92178L5.50037 10.9892L1.53592 9.92178L0.621094 0.0107422H10.3798ZM8.53596 2.026H5.4968H2.4038L2.55172 3.22285H5.4968H5.66223L5.4968 3.29171L2.65936 4.47348L2.75346 5.64336L5.4968 5.65226L6.96715 5.65692L6.87303 7.21682L5.49678 7.60429V7.60306L5.4855 7.6062L4.15639 7.27068L4.07574 6.30238H4.07133H2.83852H2.83418L2.99555 8.17167L5.49682 8.91135V8.91002L5.50133 8.91135L7.9892 8.18514L8.31192 4.47348H5.49682H5.48988L5.49682 4.47047L8.41504 3.22285L8.53596 2.026Z" fill="white"/>
</g>
<defs>
<clipPath id="clip0_393_55">
<rect width="11" height="11" fill="white"/>
</clipPath>
</defs>
</svg>
