<?xml version="1.0" encoding="utf-8"?>
<!-- Generator: Adobe Illustrator 25.0.1, SVG Export Plug-In . SVG Version: 6.00 Build 0)  -->
<svg version="1.1" id="Layer_1" xmlns="http://www.w3.org/2000/svg" xmlns:xlink="http://www.w3.org/1999/xlink" x="0px" y="0px"
	 viewBox="0 0 11 11" style="enable-background:new 0 0 11 11;" xml:space="preserve">
<style type="text/css">
	.st0{fill:#FFFFFF;}
</style>
<g>
	<path class="st0" d="M10.6,8.3c-0.2,0-0.3,0.2-0.3,0.3v1.1H0.7V8.7c0-0.2-0.2-0.3-0.3-0.3S0,8.5,0,8.7v1.5c0,0.2,0.2,0.3,0.3,0.3
		h10.3c0.2,0,0.3-0.2,0.3-0.3V8.7C11,8.5,10.8,8.3,10.6,8.3z"/>
	<path class="st0" d="M5.3,8.4c0,0,0.1,0.1,0.1,0.1c0,0,0.1,0,0.1,0s0.1,0,0.1,0c0,0,0.1,0,0.1-0.1l3.2-3.2c0.1-0.1,0.1-0.4,0-0.5
		c-0.1-0.1-0.4-0.1-0.5,0L5.8,7.3V0.8c0-0.2-0.2-0.3-0.3-0.3S5.2,0.7,5.2,0.8v6.5L2.6,4.7c-0.1-0.1-0.4-0.1-0.5,0
		c-0.1,0.1-0.1,0.4,0,0.5L5.3,8.4z"/>
</g>
</svg>
