<?xml version="1.0" encoding="utf-8"?>
<!-- Generator: Adobe Illustrator 24.0.2, SVG Export Plug-In . SVG Version: 6.00 Build 0)  -->
<svg version="1.1" id="Layer_1" xmlns="http://www.w3.org/2000/svg" xmlns:xlink="http://www.w3.org/1999/xlink" x="0px" y="0px"
	 width="16.2" height="15.2" viewBox="0 0 16.2 15.2" style="enable-background:new 0 0 16.2 15.2;" xml:space="preserve">
<style type="text/css">
	.st0{fill:#424142;}
</style>
<path class="st0" d="M15.7,5.7c-0.1,0-0.1,0-0.2,0.1c0,0,0,0,0,0L8,2.5c-0.1,0-0.2,0-0.3,0L0.3,5.7C0.2,5.8,0.1,5.9,0.1,6
	c0,0.1,0.1,0.3,0.2,0.3l1.8,0.8v3.5c0,0.1,0.1,0.2,0.1,0.3C4,12.1,6,12.7,7.9,12.7s3.9-0.6,5.7-1.8c0.1-0.1,0.1-0.2,0.1-0.3V7.1
	l1.7-0.7v2.2v2.3c0,0.2,0.1,0.3,0.3,0.3c0.2,0,0.3-0.1,0.3-0.3V8.6V6C16.1,5.8,15.9,5.7,15.7,5.7z M13.1,10.5
	c-3.2,2.1-7.1,2.1-10.3,0V7.4l5,2.2c0,0,0.1,0,0.1,0c0,0,0.1,0,0.1,0l5-2.2V10.5z M7.9,8.9L1.3,6l6.6-2.9L14.5,6L7.9,8.9z"/>
<g>
	<path class="st0" d="M139.3,14.1c-0.1,0-0.1,0-0.2,0l-4.7-2.5l-4.7,2.5c-0.1,0.1-0.2,0-0.4,0c-0.1-0.1-0.2-0.2-0.1-0.3l0.9-5.3
		l-3.8-3.7c-0.1-0.1-0.1-0.2-0.1-0.3s0.1-0.2,0.3-0.2l5.3-0.8l2.4-4.8c0.1-0.1,0.2-0.2,0.3-0.2c0,0,0,0,0,0c0.1,0,0.2,0.1,0.3,0.2
		l2.4,4.8l5.3,0.8c0.1,0,0.2,0.1,0.3,0.2s0,0.3-0.1,0.3l-3.8,3.7l0.9,5.3c0,0.1,0,0.3-0.1,0.3C139.4,14,139.3,14.1,139.3,14.1z
		 M126.8,4.5l3.7,3.6c0.1,0.1,0.1,0.2,0.1,0.3l-0.9,5l4.5-2.4c0,0,0,0,0,0c0.1,0,0.2,0,0.3,0l4.5,2.4l-0.9-5c0-0.1,0-0.2,0.1-0.3
		l3.7-3.6l-5-0.7c-0.1,0-0.2-0.1-0.3-0.2L134.4-1l-2.3,4.6c0,0.1-0.1,0.2-0.2,0.2L126.8,4.5z M142.3,4.6
		C142.3,4.6,142.3,4.6,142.3,4.6L142.3,4.6z M126.5,4.6L126.5,4.6C126.5,4.6,126.5,4.6,126.5,4.6z M134.5-1.3L134.5-1.3
		C134.5-1.3,134.5-1.3,134.5-1.3z"/>
</g>
</svg>
