<?xml version="1.0" encoding="utf-8"?>
<!-- Generator: Adobe Illustrator 24.0.2, SVG Export Plug-In . SVG Version: 6.00 Build 0)  -->
<svg version="1.1" id="Layer_1" xmlns="http://www.w3.org/2000/svg" xmlns:xlink="http://www.w3.org/1999/xlink" x="0px" y="0px"
	 viewBox="0 0 11 11" style="enable-background:new 0 0 11 11;" xml:space="preserve">
<style type="text/css">
	.st0{fill:#383839;}
</style>
<title>Asset 15</title>
<path class="st0" d="M9.7,1.5H1.3C0.6,1.5,0,2.1,0,2.8v5.4c0,0.7,0.6,1.3,1.3,1.3h8.4c0.7,0,1.3-0.6,1.3-1.3V2.8
	C11,2.1,10.4,1.5,9.7,1.5z M10.5,2.8v5.4c0,0,0,0,0,0L7,5.5l3.5-2.8C10.4,2.7,10.5,2.8,10.5,2.8z M9.7,2c0.2,0,0.4,0.1,0.5,0.2
	L6.6,5.1l0,0L5.6,5.9C5.5,6,5.4,6,5.3,5.9L4.4,5.1l0,0L0.8,2.3C0.9,2.1,1.1,2,1.3,2H9.7z M0.6,2.7L4,5.5L0.5,8.2L0.6,2.7
	C0.5,2.8,0.6,2.7,0.6,2.7z M9.7,9H1.3C1.1,9,0.9,8.9,0.7,8.7l3.6-2.9L5,6.3c0.1,0.1,0.3,0.2,0.5,0.2c0.2,0,0.3-0.1,0.5-0.2l0.6-0.5
	l3.7,2.9l0.2-0.2C10.3,8.8,10,9,9.7,9z"/>
</svg>
