<?xml version="1.0" encoding="utf-8"?>
<!-- Generator: Adobe Illustrator 24.0.2, SVG Export Plug-In . SVG Version: 6.00 Build 0)  -->
<svg version="1.1" id="Layer_1" xmlns="http://www.w3.org/2000/svg" xmlns:xlink="http://www.w3.org/1999/xlink" x="0px" y="0px"
	 viewBox="0 0 11 11" style="enable-background:new 0 0 11 11;" xml:space="preserve">
<style type="text/css">
	.st0{fill:#FFFFFF;}
</style>
<title>Asset 15</title>
<g>
	<path class="st0" d="M10.5,5.5c0,0.1-0.1,0.4-0.2,0.5L6,10.3c-0.1,0.1-0.3,0.2-0.5,0.2c-0.1,0-0.4-0.1-0.5-0.2L0.7,5.9
		C0.6,5.8,0.5,5.6,0.5,5.5S0.6,5.1,0.7,5l3-3l1.1,1.1c-0.1,0.3,0,0.8,0.4,1v2.7C4.7,7.1,4.6,7.8,5,8.2c0.1,0.1,0.4,0.2,0.5,0.2
		c0.2,0,0.4-0.1,0.5-0.2C6.3,7.9,6.4,7.3,5.8,7V4.2l1,1C6.6,6,7.6,6.7,8.1,6.1c0.6-0.6,0-1.5-0.8-1.3L6.2,3.7c0.2-0.6-0.4-1.2-1-1
		L4.1,1.6L5,0.7c0.1-0.1,0.3-0.2,0.5-0.2c0.1,0,0.4,0.1,0.5,0.2l4.4,4.4C10.4,5.2,10.5,5.4,10.5,5.5z"/>
</g>
</svg>
