<svg width="12" height="12" viewBox="0 0 12 12" fill="none" xmlns="http://www.w3.org/2000/svg">
<g clip-path="url(#clip0_206_12)">
<path fill-rule="evenodd" clip-rule="evenodd" d="M5.98212 0.12262C2.67416 0.12262 0 2.8165 0 6.14919C0 8.81319 1.71343 11.0682 4.09041 11.8663C4.38759 11.9263 4.49645 11.7367 4.49645 11.5771C4.49645 11.4374 4.48665 10.9585 4.48665 10.4595C2.82257 10.8188 2.47604 9.74111 2.47604 9.74111C2.20861 9.04266 1.81237 8.86315 1.81237 8.86315C1.26771 8.49397 1.85204 8.49397 1.85204 8.49397C2.4562 8.53388 2.77322 9.11258 2.77322 9.11258C3.30796 10.0305 4.16963 9.77111 4.51629 9.61144C4.56576 9.22229 4.72433 8.95291 4.89269 8.80327C3.56547 8.66356 2.16906 8.14474 2.16906 5.82984C2.16906 5.17131 2.40661 4.63254 2.78302 4.21352C2.72363 4.06389 2.51559 3.44515 2.84253 2.61703C2.84253 2.61703 3.34763 2.45735 4.48653 3.23564C4.97413 3.10372 5.47699 3.03661 5.98212 3.03605C6.48722 3.03605 7.00212 3.10597 7.47759 3.23564C8.61661 2.45735 9.12171 2.61703 9.12171 2.61703C9.44865 3.44515 9.24049 4.06389 9.1811 4.21352C9.56743 4.63254 9.79518 5.17131 9.79518 5.82984C9.79518 8.14474 8.39878 8.65352 7.06163 8.80327C7.27959 8.99282 7.46767 9.35197 7.46767 9.92074C7.46767 10.7289 7.45788 11.3775 7.45788 11.577C7.45788 11.7367 7.56686 11.9263 7.86392 11.8665C10.2409 11.0681 11.9543 8.81319 11.9543 6.14919C11.9641 2.8165 9.28016 0.12262 5.98212 0.12262Z" fill="#434243"/>
</g>
<defs>
<clipPath id="clip0_206_12">
<rect width="12" height="12" fill="white"/>
</clipPath>
</defs>
</svg>
