<svg xmlns="http://www.w3.org/2000/svg" viewBox="0 0 22.65 24.75"><defs><style>.cls-1{fill:none;stroke:#434143;stroke-miterlimit:10;stroke-width:0.75px;}</style></defs><title>Asset 27</title><g id="Layer_2" data-name="Layer 2"><g id="Layer_2-2" data-name="Layer 2"><path class="cls-1" d="M11.33,24.37a4.15,4.15,0,0,1-2.08-.55L2.45,19.9A4.17,4.17,0,0,1,.38,16.3V8.45a4.17,4.17,0,0,1,2.07-3.6L9.25.93a4.18,4.18,0,0,1,4.16,0L20.2,4.85a4.17,4.17,0,0,1,2.08,3.6V16.3a4.17,4.17,0,0,1-2.08,3.6l-6.79,3.92A4.18,4.18,0,0,1,11.33,24.37Z"/></g></g></svg>