<svg xmlns="http://www.w3.org/2000/svg" width="20.5" height="22.42" viewBox="0 0 20.5 22.42"><defs><style>.cls-1{fill:#424142;stroke:#434143;stroke-miterlimit:10;stroke-width:0.5px;}</style></defs><title>Asset 28</title><g id="Layer_2" data-name="Layer 2"><g id="Layer_2-2" data-name="Layer 2"><path class="cls-1" d="M10.25,22.17a3.79,3.79,0,0,1-1.9-.51l-6.2-3.58a3.82,3.82,0,0,1-1.9-3.29V7.63a3.8,3.8,0,0,1,1.9-3.29L8.35.76a3.79,3.79,0,0,1,3.8,0l6.2,3.58a3.8,3.8,0,0,1,1.9,3.29v7.16a3.82,3.82,0,0,1-1.9,3.29l-6.2,3.58A3.79,3.79,0,0,1,10.25,22.17Z"/></g></g></svg>
