<?xml version="1.0" encoding="utf-8"?>
<!-- Generator: Adobe Illustrator 24.0.2, SVG Export Plug-In . SVG Version: 6.00 Build 0)  -->
<svg version="1.1" id="Layer_1" xmlns="http://www.w3.org/2000/svg" xmlns:xlink="http://www.w3.org/1999/xlink" x="0px" y="0px"
	 width="11" height="11" viewBox="0 0 11 11" style="enable-background:new 0 0 11 11;" xml:space="preserve">
<style type="text/css">
	.st0{fill:#FFFFFF;}
</style>
<title>Asset 15</title>
<g>
	<path class="st0" d="M2.9,7L2.1,9.5H1l2.7-8H5l2.7,8H6.6L5.8,7H2.9z M5.5,6.2L4.8,3.9c-0.2-0.5-0.3-1-0.4-1.5l0,0
		C4.3,2.9,4.2,3.4,4,3.9L3.1,6.2H5.5z"/>
	<path class="st0" d="M10,2.1c0,0.4-0.3,0.6-0.7,0.6C9,2.8,8.7,2.5,8.7,2.1S9,1.4,9.4,1.4C9.7,1.5,10,1.8,10,2.1z M8.8,9.5V3.8h1
		v5.8h-1V9.5z"/>
</g>
</svg>
