<?xml version="1.0" encoding="utf-8"?>
<!-- Generator: Adobe Illustrator 24.0.2, SVG Export Plug-In . SVG Version: 6.00 Build 0)  -->
<svg version="1.1" id="Layer_1" xmlns="http://www.w3.org/2000/svg" xmlns:xlink="http://www.w3.org/1999/xlink" x="0px" y="0px"
	 viewBox="0 0 11 11" style="enable-background:new 0 0 11 11;" xml:space="preserve">
<style type="text/css">
	.st0{fill:#FFFFFF;}
</style>
<title>Asset 15</title>
<g>
	<path class="st0" d="M10.5,0.5v10h-10v-10H10.5z M5.9,5.1H5v3.2c0,0.5-0.2,0.6-0.5,0.6C4.2,8.9,4,8.7,3.9,8.4L3.1,8.9
		c0.2,0.5,0.7,0.9,1.4,0.9c0.8,0,1.4-0.4,1.4-1.4V5.1z M9.7,8.4c0-0.8-0.4-1.1-1.2-1.5L8.2,6.8C7.8,6.7,7.7,6.5,7.7,6.3
		s0.2-0.4,0.4-0.4c0.3,0,0.4,0.1,0.6,0.4l0.7-0.5C9.1,5.2,8.7,5,8.1,5C7.3,5,6.7,5.6,6.7,6.3c0,0.8,0.4,1.1,1.1,1.4L8,7.8
		C8.5,8,8.8,8.1,8.8,8.4c0,0.3-0.3,0.5-0.6,0.5c-0.5,0-0.7-0.2-0.9-0.6L6.5,8.8c0.3,0.5,0.8,1,1.7,1C9.1,9.7,9.7,9.3,9.7,8.4z"/>
</g>
</svg>
