<?xml version="1.0" encoding="utf-8"?>
<!-- Generator: Adobe Illustrator 24.0.2, SVG Export Plug-In . SVG Version: 6.00 Build 0)  -->
<svg version="1.1" id="Layer_1" xmlns="http://www.w3.org/2000/svg" xmlns:xlink="http://www.w3.org/1999/xlink" x="0px" y="0px"
	 viewBox="0 0 11 11" style="enable-background:new 0 0 11 11;" xml:space="preserve">
<style type="text/css">
	.st0{fill:#FFFFFF;}
</style>
<title>Asset 15</title>
<path id="surface1" class="st0" d="M6.6,0.5C6.6,0.5,6.6,0.5,6.6,0.5C6.3,0.6,6.1,0.9,6.1,1C5.9,1.3,5.7,1.7,5.7,2.1
	c0,0.3,0.1,0.6,0.2,0.9c0.3,0.7,0.9,1.2,1.5,1.5l0.1,0c0,0,0,0,0,0l0,0c0,0,0.1,0,0.1,0c0.2,0,0.4,0.1,0.5,0.1c0,0,0.1,0,0.1,0
	c1.2,0,1.7-0.9,1.9-1.2c0,0,0-0.1,0-0.1c0,0,0,0,0,0c0.1-0.1,0-0.2-0.1-0.3C10.1,3,9.9,3,9.9,3.1h0C9.5,3.6,9,3.7,8.2,3.5
	C8.1,3.5,8,3.5,8,3.5c-0.1,0-0.1-0.1-0.2-0.1C7.6,3.3,7.5,3.2,7.4,3.1c-0.7-0.5-1-1.7-0.6-2.3c0.1-0.1,0-0.2-0.1-0.3
	C6.7,0.5,6.7,0.5,6.6,0.5L6.6,0.5z M4.6,1C4.5,1,4.5,1,4.4,1C4.1,1.3,3.8,1.7,3.7,1.8c0,0,0,0,0,0C3.1,2.7,3.1,4,3.6,5.1
	c0.1,0.2,0.2,0.3,0.3,0.5l0,0C4,5.7,4.1,5.9,4.2,6c0,0,0.1,0.1,0.1,0.1l0,0l0,0c0,0,0.1,0.1,0.1,0.1h0c0,0,0,0,0,0
	c0.1,0,0.1,0.1,0.2,0.2l0,0C4.9,6.5,4.9,6.6,5,6.6c0,0,0,0,0.1,0l0,0l0,0c0,0,0.1,0.1,0.2,0.1c0,0,0.1,0,0.1,0.1c0,0,0,0,0.1,0
	l0.1,0l0,0c0,0,0.1,0,0.1,0.1l0.1,0c0,0,0.1,0,0.2,0.1l0,0c0,0,0,0,0,0c0,0,0.1,0,0.1,0l0.1,0c0,0,0.1,0,0.2,0
	c0.3,0.1,0.6,0.1,0.9,0.1c0,0,0.1,0,0.1,0c2.5-0.1,3.2-2.2,3.2-2.2c0-0.1,0-0.2-0.1-0.3c-0.1,0-0.2,0-0.3,0.1C9.4,5.8,8.2,6.2,7,5.9
	c-0.1,0-0.1,0-0.2-0.1c0,0,0,0,0,0c0,0-0.1,0-0.1,0l-0.1,0c0,0-0.1,0-0.1,0l0,0c-0.1,0-0.1,0-0.2-0.1L6.2,5.6c0,0-0.1,0-0.1-0.1l0,0
	l0,0c0,0-0.1,0-0.1-0.1l0,0c0,0,0,0,0,0l-0.1,0c-0.1,0-0.1-0.1-0.2-0.1l0,0C5,4.7,4.6,4.1,4.4,3.4C4.2,2.8,4.4,2,4.8,1.3
	c0.1-0.1,0-0.2,0-0.3C4.7,1,4.6,1,4.6,1L4.6,1z M2.1,1.6C2,1.6,2,1.7,1.9,1.7c-0.4,0.4-0.8,0.9-0.8,1C0.2,4,0.4,6.1,1,7.4
	c0,0,0,0.1,0,0.1l0,0c0,0,0,0.1,0,0.1c0,0,0,0,0,0c0,0,0,0,0,0.1l0.1,0.1l0,0c0,0,0,0,0,0.1l0,0.1c0,0,0,0,0,0
	c0,0.1,0.1,0.1,0.1,0.2c0,0,0,0,0,0l0,0c0,0,0.1,0.1,0.1,0.1l0.1,0.2c0,0,0,0,0,0l0,0c0,0,0.1,0.1,0.1,0.1c0,0,0,0,0,0
	c0,0,0.1,0.1,0.1,0.1l0,0c0,0,0.1,0.1,0.1,0.1c0,0,0,0,0,0l0,0c0,0,0.1,0.1,0.1,0.1c0,0,0,0,0,0c0,0,0.1,0.1,0.1,0.1l0.2,0.2
	c0,0,0.1,0.1,0.1,0.1c0,0,0,0,0,0c0,0,0,0,0,0l0.2,0.1c0.1,0,0.1,0.1,0.2,0.1l0,0c0,0,0.1,0.1,0.1,0.1c0,0,0.1,0,0.1,0
	c0,0,0.1,0,0.1,0.1c0.1,0,0.1,0.1,0.2,0.1c0,0,0,0,0,0c0.1,0,0.1,0.1,0.2,0.1c0.1,0,0.1,0,0.2,0.1l0,0c0.1,0,0.2,0.1,0.2,0.1l0,0
	c0.1,0,0.1,0,0.2,0c0.4,0.1,0.8,0.1,1.2,0.1h0c3.3,0,4.3-2.6,4.3-2.6c0-0.1,0-0.2-0.1-0.3c-0.1,0-0.2,0-0.3,0.1
	C9,8.7,7.5,9.1,5.6,8.7c0,0-0.1,0-0.1,0l-0.1,0c-0.1,0-0.1,0-0.2-0.1c0,0,0,0,0,0c0,0-0.1,0-0.1-0.1l0,0c-0.1,0-0.1,0-0.2-0.1l0,0
	c0,0-0.1,0-0.1-0.1c0,0,0,0,0,0c0,0-0.1,0-0.1-0.1L4.4,8.2c0,0,0,0-0.1,0c-0.1,0-0.1-0.1-0.2-0.1c0,0,0,0,0,0C4.1,8,4,8,4,7.9l0,0
	c0,0-0.1-0.1-0.1-0.1c0,0,0,0-0.1-0.1c0,0-0.1,0-0.1-0.1l0,0c0,0-0.1-0.1-0.1-0.1c0,0,0,0,0,0c0,0-0.1-0.1-0.1-0.1L3.2,7.3
	c0,0-0.1-0.1-0.1-0.1C3,7.1,3,7.1,2.9,7L2.8,6.9c0,0,0,0,0-0.1c0,0-0.1-0.1-0.1-0.1C1.8,5.5,1.6,2.9,2.3,2c0.1-0.1,0.1-0.2,0-0.3
	C2.2,1.7,2.1,1.6,2.1,1.6L2.1,1.6z"/>
</svg>
