<?xml version="1.0" encoding="utf-8"?>
<!-- Generator: Adobe Illustrator 24.0.2, SVG Export Plug-In . SVG Version: 6.00 Build 0)  -->
<svg version="1.1" id="Layer_1" xmlns="http://www.w3.org/2000/svg" xmlns:xlink="http://www.w3.org/1999/xlink" x="0px" y="0px"
	 viewBox="0 0 11 11" style="enable-background:new 0 0 11 11;" xml:space="preserve">
<style type="text/css">
	.st0{fill:#434243;}
</style>
<title>Asset 15</title>
<g>
	<path class="st0" d="M1.3,2.3c0-0.6,0.5-1,1-1c0.6,0,1,0.5,1,1c0,0.6-0.5,1-1,1S1.3,2.9,1.3,2.3z M1.4,9.7V4.1h1.7v5.6H1.4z M8,9.7
		V7c0-0.6,0-1.5-0.9-1.5c-0.9,0-1,0.7-1,1.4v2.8H4.3V4.1h1.7v0.8h0C6.2,4.4,6.8,4,7.6,4c1.8,0,2.1,1.2,2.1,2.7v3.1h0H8z"/>
</g>
</svg>
