<?xml version="1.0" encoding="utf-8"?>
<!-- Generator: Adobe Illustrator 24.0.2, SVG Export Plug-In . SVG Version: 6.00 Build 0)  -->
<svg version="1.1" id="Layer_1" xmlns="http://www.w3.org/2000/svg" xmlns:xlink="http://www.w3.org/1999/xlink" x="0px" y="0px"
	 viewBox="0 0 11 11" style="enable-background:new 0 0 11 11;" xml:space="preserve">
<style type="text/css">
	.st0{fill:#434243;}
</style>
<title>Asset 15</title>
<g>
	<path class="st0" d="M8.3,0.1H2.7c-0.4,0-0.8,0.3-0.8,0.8v9.2c0,0.4,0.3,0.8,0.8,0.8h5.7c0.4,0,0.8-0.3,0.8-0.8V0.9
		C9.1,0.5,8.7,0.1,8.3,0.1z M8.6,10.1c0,0.1-0.1,0.3-0.3,0.3H2.7c-0.1,0-0.3-0.1-0.3-0.3V0.9c0-0.1,0.1-0.3,0.3-0.3h5.7
		c0.1,0,0.3,0.1,0.3,0.3V10.1z"/>
	<path class="st0" d="M7.6,1.1H3.4C3,1.1,2.6,1.4,2.6,1.8v6.1c0,0.4,0.3,0.8,0.8,0.8h4.3c0.4,0,0.8-0.3,0.8-0.8V1.8
		C8.4,1.4,8,1.1,7.6,1.1z M7.9,7.9c0,0.1-0.1,0.3-0.3,0.3H3.4C3.2,8.2,3.1,8,3.1,7.9V1.8c0-0.1,0.1-0.3,0.3-0.3h4.3
		c0.1,0,0.3,0.1,0.3,0.3V7.9z"/>
	<circle class="st0" cx="5.5" cy="9.5" r="0.5"/>
</g>
</svg>
