<svg width="26" height="26" viewBox="0 0 26 26" fill="none" xmlns="http://www.w3.org/2000/svg">
<path d="M25 16.843L25.3291 16.9622C25.3753 16.8345 25.3435 16.6916 25.2475 16.5955C25.1515 16.4995 25.0085 16.4677 24.8808 16.5139L25 16.843ZM9.15697 1L9.48606 1.11915C9.53229 0.991454 9.50048 0.848542 9.40445 0.752513C9.30842 0.656483 9.16551 0.624673 9.03782 0.670905L9.15697 1ZM24.8808 16.5139C23.6042 16.9761 22.2266 17.2283 20.7893 17.2283V17.9283C22.309 17.9283 23.7672 17.6616 25.1191 17.1721L24.8808 16.5139ZM20.7893 17.2283C14.1522 17.2283 8.7717 11.8478 8.7717 5.21067H8.0717C8.0717 12.2344 13.7656 17.9283 20.7893 17.9283V17.2283ZM8.7717 5.21067C8.7717 3.77338 9.02386 2.39577 9.48606 1.11915L8.82787 0.880851C8.33841 2.23277 8.0717 3.69096 8.0717 5.21067H8.7717ZM1.35 12.6324C1.35 7.43242 4.65278 3.00298 9.27611 1.32909L9.03782 0.670905C4.14622 2.44191 0.65 7.1284 0.65 12.6324H1.35ZM13.3676 24.65C6.73048 24.65 1.35 19.2695 1.35 12.6324H0.65C0.65 19.6561 6.34388 25.35 13.3676 25.35V24.65ZM24.6709 16.7239C22.997 21.3472 18.5676 24.65 13.3676 24.65V25.35C18.8716 25.35 23.5581 21.8538 25.3291 16.9622L24.6709 16.7239Z" fill="#424142"/>
</svg>
