<?xml version="1.0" encoding="utf-8"?>
<!-- Generator: Adobe Illustrator 24.0.2, SVG Export Plug-In . SVG Version: 6.00 Build 0)  -->
<svg version="1.1" id="Layer_1" xmlns="http://www.w3.org/2000/svg" xmlns:xlink="http://www.w3.org/1999/xlink" x="0px" y="0px"
	 viewBox="0 0 11 11" style="enable-background:new 0 0 11 11;" xml:space="preserve">
<style type="text/css">
	.st0{fill:#FFFFFF;}
</style>
<title>Asset 15</title>
<g>
	<path class="st0" d="M1,1.7c0.5-0.1,1.1-0.1,1.9-0.1c1,0,1.7,0.2,2.2,0.6c0.4,0.4,0.7,0.9,0.7,1.6S5.6,5,5.2,5.4
		C4.6,6,3.8,6.3,2.8,6.3c-0.3,0-0.6,0-0.8-0.1v3.1H1V1.7z M2,5.4c0.2,0.1,0.5,0.1,0.8,0.1c1.2,0,1.9-0.6,1.9-1.6S4,2.4,2.9,2.4
		c-0.4,0-0.8,0-0.9,0.1C2,2.5,2,5.4,2,5.4z"/>
	<path class="st0" d="M6.6,8.3C6.9,8.5,7.5,8.7,8,8.7c0.7,0,1-0.4,1-0.8c0-0.5-0.3-0.7-1-1c-1-0.4-1.5-1-1.5-1.6
		c0-0.9,0.7-1.6,1.9-1.6c0.6,0,1,0.2,1.4,0.3L9.6,4.7C9.3,4.6,8.9,4.4,8.4,4.4c-0.6,0-0.9,0.3-0.9,0.8s0.3,0.7,1,0.9
		C9.5,6.5,10,7,10,7.8c0,1-0.8,1.7-2.1,1.7C7.3,9.4,6.8,9.3,6.4,9L6.6,8.3z"/>
</g>
</svg>
