<?xml version="1.0" encoding="utf-8"?>
<!-- Generator: Adobe Illustrator 16.0.0, SVG Export Plug-In . SVG Version: 6.00 Build 0)  -->
<!DOCTYPE svg PUBLIC "-//W3C//DTD SVG 1.1//EN" "http://www.w3.org/Graphics/SVG/1.1/DTD/svg11.dtd">
<svg version="1.1" id="Layer_1" xmlns="http://www.w3.org/2000/svg" xmlns:xlink="http://www.w3.org/1999/xlink" x="0px" y="0px" width="595.281px" height="841.891px" viewBox="0 0 595.281 841.891" enable-background="new 0 0 595.281 841.891" xml:space="preserve">
  <title>Asset 15</title>
  <g>
    <path fill="#FFFFFF" d="M57.689,337.969h84.554c24.817,0.209,42.801,7.364,53.95,21.454c11.149,14.091,14.829,33.336,11.042,57.736
		c-1.47,11.149-4.732,22.085-9.78,32.813c-4.84,10.727-11.566,20.399-20.192,29.025c-10.519,10.936-21.77,17.876-33.758,20.823
		c-11.989,2.946-24.401,4.417-37.229,4.417h-37.86l-11.989,59.944H12.573L57.689,337.969L57.689,337.969 M94.603,373.935
		l-18.93,94.65c1.262,0.208,2.524,0.315,3.786,0.315c1.47,0,2.947,0,4.417,0c20.192,0.208,37.021-1.786,50.479-5.994
		c13.459-4.417,22.508-19.77,27.133-46.063c3.786-22.085,0-34.812-11.358-38.176c-11.15-3.363-25.133-4.94-41.961-4.732
		c-2.524,0.209-4.941,0.315-7.256,0.315c-2.102,0-4.31,0-6.625,0L94.603,373.935" />
    <path fill="#FFFFFF" d="M257.191,277.709h43.54l-12.305,60.26h39.122c21.455,0.423,37.438,4.84,47.957,13.251
		c10.727,8.412,13.881,24.4,9.465,47.956l-21.139,105.062h-44.17l20.191-100.329c2.102-10.519,1.471-17.983-1.893-22.4
		s-10.619-6.625-21.77-6.625l-35.021-0.315l-25.871,129.67h-43.539L257.191,277.709L257.191,277.709" />
    <path fill="#FFFFFF" d="M431.721,337.969h84.555c24.816,0.209,42.801,7.364,53.949,21.454c11.15,14.091,14.83,33.336,11.043,57.736
		c-1.471,11.149-4.732,22.085-9.779,32.813c-4.84,10.727-11.566,20.399-20.193,29.025c-10.518,10.936-21.77,17.876-33.758,20.823
		c-11.988,2.946-24.4,4.417-37.229,4.417H442.45l-11.99,59.944h-43.854L431.721,337.969L431.721,337.969 M468.635,373.935
		l-18.93,94.65c1.262,0.208,2.523,0.315,3.785,0.315c1.471,0,2.947,0,4.418,0c20.191,0.208,37.02-1.786,50.479-5.994
		c13.461-4.417,22.508-19.77,27.135-46.063c3.785-22.085,0-34.812-11.359-38.176c-11.148-3.363-25.133-4.94-41.961-4.732
		c-2.523,0.209-4.941,0.315-7.256,0.315c-2.102,0-4.311,0-6.627,0L468.635,373.935" />
  </g>
</svg>
