<svg xmlns="http://www.w3.org/2000/svg" width="14" height="14" fill="none"><path stroke="#424142" stroke-linejoin="round" stroke-width=".5" d="M5.839 8.106v-1.9a.72.72 0 0 0 .484.187.73.73 0 0 0 .725-.734.73.73 0 0 0-.725-.734.72.72 0 0 0-.484.187v-1.9h-3.63C1.543 3.212 1 3.76 1 4.436v3.67m4.839 0H3.96a.736.736 0 0 0-.54-1.223.736.736 0 0 0-.541 1.223H1m4.839 0v1.9a.72.72 0 0 0-.484-.187.73.73 0 0 0-.726.734.73.73 0 0 0 .726.734c.186 0 .355-.07.484-.187V13m0-4.894h1.878a.736.736 0 0 0 .541 1.224.736.736 0 0 0 .541-1.224h1.878v3.67c0 .676-.541 1.224-1.21 1.224H5.84M1 8.106v3.67C1 12.453 1.542 13 2.21 13h3.629M12.06 1.907a1.21 1.21 0 0 0-1.482-.865l-3.505.95.486 1.835a.724.724 0 0 1 1.308.212.735.735 0 0 1-.513.899.72.72 0 0 1-.515-.054l.486 1.835 1.814-.492a.74.74 0 0 0-.053.522.725.725 0 0 0 .89.519.735.735 0 0 0 .209-1.324L13 5.453z"/></svg>