<svg width="11" height="11" viewBox="0 0 11 11" fill="none" xmlns="http://www.w3.org/2000/svg">
<g clip-path="url(#clip0_393_58)">
<path d="M9.46683 6.11644C9.08249 6.11842 8.74941 6.21082 8.47023 6.34832C8.36815 6.1446 8.26475 5.9653 8.24737 5.83198C8.22713 5.67644 8.20359 5.5836 8.22801 5.39814C8.25243 5.21268 8.35979 4.95022 8.35803 4.93064C8.35649 4.91106 8.33405 4.81668 8.11229 4.81492C7.89053 4.81338 7.70089 4.8576 7.67845 4.91612C7.65601 4.97464 7.61333 5.10642 7.58693 5.24392C7.54799 5.445 7.14429 6.1622 6.91483 6.5373C6.83981 6.39078 6.77601 6.26186 6.76281 6.15978C6.74257 6.00424 6.71903 5.9114 6.74345 5.72594C6.76787 5.54048 6.87523 5.27802 6.87347 5.25844C6.87193 5.23886 6.84949 5.14448 6.62773 5.14272C6.40597 5.14118 6.21633 5.1854 6.19389 5.24392C6.17145 5.30244 6.14769 5.43928 6.10237 5.57172C6.05683 5.70416 5.52003 6.9003 5.37945 7.21028C5.30773 7.36824 5.24547 7.49518 5.20147 7.58186L5.20125 7.58142C5.20125 7.58142 5.19861 7.58714 5.19377 7.59704C5.15615 7.67074 5.13371 7.71166 5.13371 7.71166C5.13371 7.71166 5.13393 7.71232 5.13437 7.7132C5.10445 7.76732 5.07255 7.8177 5.05671 7.8177C5.04571 7.8177 5.02349 7.67338 5.06155 7.4756C5.14141 7.06068 5.33325 6.41344 5.33149 6.39122C5.33061 6.37978 5.36713 6.26714 5.20609 6.20796C5.04967 6.15076 4.99379 6.24624 4.97949 6.24646C4.96563 6.24668 4.95529 6.28012 4.95529 6.28012C4.95529 6.28012 5.12975 5.55236 4.62265 5.55236C4.30585 5.55236 3.86673 5.89908 3.65025 6.21324C3.51385 6.2876 3.22169 6.4471 2.91171 6.61738C2.79269 6.68272 2.67125 6.7496 2.55597 6.81318C2.54805 6.8046 2.54035 6.7958 2.53221 6.78722C1.91753 6.1314 0.78145 5.66764 0.82963 4.7861C0.84723 4.46556 0.95855 3.62164 3.01291 2.59798C4.69569 1.75934 6.04297 1.99012 6.27573 2.50162C6.60837 3.23224 5.55567 4.5903 3.80821 4.7861C3.14227 4.86068 2.79181 4.60262 2.70447 4.50648C2.61273 4.40528 2.59909 4.40066 2.56477 4.4198C2.50889 4.45082 2.54431 4.54014 2.56477 4.59338C2.61691 4.72912 2.83097 4.97002 3.19617 5.0897C3.51737 5.19508 4.29903 5.25294 5.24459 4.8873C6.30345 4.47766 7.13021 3.33828 6.88755 2.3859C6.64049 1.41724 5.03449 1.0989 3.51451 1.63878C2.60987 1.9602 1.63065 2.46466 0.92643 3.12312C0.0891104 3.90632 -0.0442096 4.58788 0.0107904 4.87256C0.20637 5.88456 1.60095 6.54346 2.15953 7.03186C2.13203 7.04704 2.10607 7.06134 2.08253 7.07432C1.80247 7.21292 0.73943 7.7693 0.47345 8.35714C0.17183 9.02396 0.52141 9.50246 0.75307 9.56692C1.47027 9.76646 2.20639 9.40742 2.60195 8.81738C2.99751 8.22756 2.94911 7.45954 2.76761 7.10886C2.76541 7.10446 2.76277 7.10028 2.76057 7.09588C2.83295 7.05298 2.90665 7.00964 2.97969 6.96674C3.12225 6.88314 3.26217 6.80504 3.38361 6.73882C3.31563 6.92494 3.26591 7.14802 3.23995 7.47032C3.20959 7.84894 3.36469 8.33822 3.56775 8.53072C3.65707 8.61542 3.76465 8.6174 3.83285 8.6174C4.06913 8.6174 4.17693 8.42094 4.29551 8.1884C4.44115 7.90328 4.57029 7.57152 4.57029 7.57152C4.57029 7.57152 4.40815 8.46802 4.84991 8.46802C5.01073 8.46802 5.17265 8.25924 5.24481 8.15298C5.24503 8.15408 5.24503 8.15474 5.24503 8.15474C5.24503 8.15474 5.24921 8.14792 5.25735 8.13384C5.27407 8.10832 5.28353 8.09204 5.28353 8.09204C5.28353 8.09204 5.28397 8.09028 5.28441 8.08742C5.34909 7.97522 5.49253 7.71914 5.70769 7.29674C5.98555 6.75114 6.25219 6.06782 6.25219 6.06782C6.25219 6.06782 6.27705 6.23502 6.35823 6.51112C6.40597 6.6737 6.50761 6.85344 6.58769 7.0257C6.52323 7.11524 6.48363 7.1665 6.48363 7.1665C6.48363 7.1665 6.48407 7.16738 6.48473 7.16914C6.43325 7.23756 6.37539 7.31126 6.31489 7.38342C6.09555 7.64478 5.83419 7.9431 5.79921 8.02934C5.75807 8.13076 5.76775 8.20556 5.84739 8.2654C5.90547 8.30918 6.00909 8.316 6.11733 8.30874C6.31445 8.29554 6.45327 8.24648 6.52169 8.21678C6.62839 8.17916 6.75269 8.11976 6.86929 8.03396C7.08445 7.87578 7.21425 7.6494 7.20193 7.34954C7.19511 7.18432 7.14231 7.02064 7.07565 6.86598C7.09523 6.83782 7.11481 6.80966 7.13439 6.78084C7.47363 6.28474 7.73675 5.7398 7.73675 5.7398C7.73675 5.7398 7.76161 5.907 7.84279 6.1831C7.88393 6.32302 7.96511 6.47548 8.03793 6.62508C7.71893 6.88424 7.52115 7.18542 7.45229 7.38298C7.32535 7.7484 7.42479 7.91406 7.61135 7.95168C7.69583 7.96884 7.81529 7.93012 7.90505 7.89206C8.01681 7.8551 8.15101 7.79328 8.27641 7.7011C8.49157 7.54292 8.69859 7.32138 8.68605 7.02152C8.68033 6.88512 8.64337 6.7496 8.59321 6.61936C8.86359 6.50672 9.21383 6.44402 9.65977 6.49616C10.6165 6.60792 10.8042 7.20522 10.7683 7.45514C10.7325 7.70528 10.5318 7.84256 10.4647 7.88414C10.3976 7.92572 10.3772 7.94002 10.3829 7.97082C10.391 8.0157 10.4221 8.01394 10.4793 8.00426C10.558 7.99106 10.9815 7.80098 10.9998 7.33942C11.0227 6.75466 10.4612 6.11116 9.46683 6.11644ZM2.09287 8.60244C1.77607 8.94806 1.33321 9.07874 1.14335 8.96874C0.93831 8.84994 1.01949 8.34086 1.40845 7.97412C1.64539 7.7506 1.95141 7.54468 2.15447 7.41774C2.20067 7.39002 2.26843 7.3491 2.35093 7.2996C2.36457 7.2919 2.37227 7.2875 2.37227 7.2875L2.37205 7.28706C2.38789 7.2776 2.40439 7.2677 2.42111 7.25758C2.56257 7.77986 2.42551 8.23966 2.09287 8.60244ZM4.40133 7.03296C4.29089 7.30202 4.05989 7.9904 3.91931 7.95344C3.79853 7.92176 3.72505 7.39838 3.89511 6.88358C3.98069 6.62442 4.16351 6.31466 4.27109 6.19432C4.44401 6.00094 4.63453 5.93758 4.68073 6.01612C4.73991 6.116 4.47063 6.86422 4.40133 7.03296ZM6.30873 7.9431C6.26187 7.96752 6.21897 7.98292 6.19917 7.97104C6.18443 7.96224 6.21853 7.93012 6.21853 7.93012C6.21853 7.93012 6.45701 7.67338 6.55117 7.55656C6.60573 7.48858 6.66931 7.40784 6.73817 7.31764C6.73883 7.32666 6.73905 7.33568 6.73905 7.34448C6.73817 7.65204 6.44117 7.8595 6.30873 7.9431ZM7.77811 7.60804C7.74313 7.58318 7.74907 7.50288 7.86369 7.25296C7.90879 7.15484 8.01153 6.9894 8.19039 6.83144C8.21107 6.89634 8.22383 6.9586 8.22339 7.01668C8.22097 7.40366 7.94487 7.5482 7.77811 7.60804Z" fill="white"/>
</g>
<defs>
<clipPath id="clip0_393_58">
<rect width="11" height="11" fill="white"/>
</clipPath>
</defs>
</svg>
