<?xml version="1.0" encoding="utf-8"?>
<!-- Generator: Adobe Illustrator 24.0.2, SVG Export Plug-In . SVG Version: 6.00 Build 0)  -->
<svg version="1.1" id="Layer_1" xmlns="http://www.w3.org/2000/svg" xmlns:xlink="http://www.w3.org/1999/xlink" x="0px" y="0px"
	 width="16.2" height="15.2" viewBox="0 0 16.2 15.2" style="enable-background:new 0 0 16.2 15.2;" xml:space="preserve">
<style type="text/css">
	.st0{fill:#424142;}
</style>
<g>
	<path class="st0" d="M14.1,3.7c0.3,0,0.7-0.1,0.9-0.4l1.1-1.1c0.1-0.1,0.1-0.3,0-0.5l-1.3-1.3c-0.1-0.1-0.3-0.1-0.5,0l-1.1,1.1
		c-0.4,0.4-0.5,1-0.2,1.5L9.6,6.4L8,4.9c0.3-1.3-0.1-2.7-1.1-3.7C6.2,0.4,5.1,0,4.1,0c-0.5,0-1,0.1-1.4,0.3c-0.1,0-0.2,0.1-0.2,0.2
		c0,0.1,0,0.2,0.1,0.3l1.9,1.9L4.1,4.1L2.7,4.4L0.8,2.5C0.7,2.4,0.6,2.4,0.5,2.4c-0.1,0-0.2,0.1-0.2,0.2c-0.6,1.5-0.2,3.2,0.9,4.3
		c1,1,2.3,1.4,3.7,1.1l0.6,0.6l-3.1,3.1c-0.4,0.4-0.7,0.9-0.7,1.4c-0.1,0.6,0.1,1,0.4,1.4c0.3,0.3,0.7,0.4,1.1,0.4
		c0.6,0,1.2-0.3,1.7-0.8l3.1-3.1l3.5,3.5c0.4,0.4,1,0.7,1.6,0.7c0.6,0,1.2-0.2,1.6-0.7c0.4-0.4,0.7-1,0.7-1.6c0-0.6-0.2-1.2-0.7-1.6
		l-4.5-4.5l3.4-3.4C13.6,3.6,13.8,3.7,14.1,3.7z M13.6,2l0.9-0.9L15.4,2l-0.9,0.9c-0.2,0.2-0.6,0.2-0.9,0c0,0,0,0,0,0c0,0,0,0,0,0
		C13.4,2.6,13.4,2.2,13.6,2z M4.4,13.7C4,14,3.5,14.2,3.1,14.2c-0.2,0-0.4,0-0.6-0.2c-0.2-0.2-0.3-0.5-0.2-0.8
		c0.1-0.4,0.3-0.7,0.6-1.1l3-3l1.5,1.5L4.4,13.7z M14.1,11.8c0.3,0.3,0.5,0.7,0.5,1.1c0,0.4-0.2,0.8-0.5,1.1
		c-0.3,0.3-0.7,0.5-1.1,0.5c-0.4,0-0.8-0.2-1.1-0.5L5.2,7.4C5.1,7.4,5.1,7.3,5,7.3c0,0-0.1,0-0.1,0c-1.1,0.3-2.4,0-3.2-0.9
		c-0.8-0.8-1.1-2-0.9-3.1l1.7,1.7c0.1,0.1,0.2,0.1,0.3,0.1l1.7-0.5c0.1,0,0.2-0.1,0.2-0.2l0.5-1.7c0-0.1,0-0.2-0.1-0.3L3.4,0.7
		c1.1-0.2,2.3,0.1,3.1,0.9c0.8,0.8,1.2,2.1,0.9,3.2c0,0.1,0,0.2,0.1,0.3L14.1,11.8z"/>
	<path class="st0" d="M12.8,13.4c0.3,0,0.6-0.2,0.6-0.6c0-0.3-0.2-0.6-0.6-0.6c-0.3,0-0.6,0.2-0.6,0.6
		C12.3,13.1,12.5,13.4,12.8,13.4z"/>
</g>
<g>
	<path class="st0" d="M139.3,14.1c-0.1,0-0.1,0-0.2,0l-4.7-2.5l-4.7,2.5c-0.1,0.1-0.2,0-0.4,0c-0.1-0.1-0.2-0.2-0.1-0.3l0.9-5.3
		l-3.8-3.7c-0.1-0.1-0.1-0.2-0.1-0.3s0.1-0.2,0.3-0.2l5.3-0.8l2.4-4.8c0.1-0.1,0.2-0.2,0.3-0.2c0,0,0,0,0,0c0.1,0,0.2,0.1,0.3,0.2
		l2.4,4.8l5.3,0.8c0.1,0,0.2,0.1,0.3,0.2s0,0.3-0.1,0.3l-3.8,3.7l0.9,5.3c0,0.1,0,0.3-0.1,0.3C139.4,14,139.3,14.1,139.3,14.1z
		 M126.8,4.5l3.7,3.6c0.1,0.1,0.1,0.2,0.1,0.3l-0.9,5l4.5-2.4c0,0,0,0,0,0c0.1,0,0.2,0,0.3,0l4.5,2.4l-0.9-5c0-0.1,0-0.2,0.1-0.3
		l3.7-3.6l-5-0.7c-0.1,0-0.2-0.1-0.3-0.2L134.4-1l-2.3,4.6c0,0.1-0.1,0.2-0.2,0.2L126.8,4.5z M142.3,4.6
		C142.3,4.6,142.3,4.6,142.3,4.6L142.3,4.6z M126.5,4.6L126.5,4.6C126.5,4.6,126.5,4.6,126.5,4.6z M134.5-1.3L134.5-1.3
		C134.5-1.3,134.5-1.3,134.5-1.3z"/>
</g>
</svg>
