<svg xmlns="http://www.w3.org/2000/svg" viewBox="0 0 16.5 15.73"><defs><style>.cls-1{fill:#424142;}</style></defs><title>Asset 12</title><g id="Layer_2" data-name="Layer 2"><g id="Layer_3" data-name="Layer 3"><path class="cls-1" d="M13.14,15.73a.42.42,0,0,1-.15,0L8.25,13.2,3.51,15.69a.32.32,0,0,1-.35,0A.34.34,0,0,1,3,15.33l.9-5.27L.1,6.33A.35.35,0,0,1,0,6a.34.34,0,0,1,.27-.23L5.58,5,8,.19A.33.33,0,0,1,8.25,0h0a.33.33,0,0,1,.3.19L10.92,5l5.29.77a.34.34,0,0,1,.27.23.35.35,0,0,1-.08.35l-3.83,3.73.9,5.27a.34.34,0,0,1-.13.33A.37.37,0,0,1,13.14,15.73ZM.69,6.2,4.34,9.76a.34.34,0,0,1,.1.3l-.86,5,4.51-2.38h0a.32.32,0,0,1,.3,0l4.52,2.38-.86-5a.34.34,0,0,1,.1-.3L15.81,6.2l-5.05-.73a.35.35,0,0,1-.25-.19L8.25.71,6,5.28a.35.35,0,0,1-.25.19Zm15.45,0ZM.36,6.25ZM8.4.41Z"/></g></g></svg>