<?xml version="1.0" encoding="utf-8"?>
<!-- Generator: Adobe Illustrator 24.0.2, SVG Export Plug-In . SVG Version: 6.00 Build 0)  -->
<svg version="1.1" id="Layer_1" xmlns="http://www.w3.org/2000/svg" xmlns:xlink="http://www.w3.org/1999/xlink" x="0px" y="0px"
	 width="16.2" height="15.2" viewBox="0 0 16.2 15.2" style="enable-background:new 0 0 16.2 15.2;" xml:space="preserve">
<style type="text/css">
	.st0{fill:#424142;}
</style>
<g>
	<path class="st0" d="M0.7,3.2c-0.2,0-0.4,0.2-0.4,0.4S0.4,4,0.7,4h2c0-0.1-0.1-0.3-0.1-0.4c0-0.1,0-0.3,0.1-0.4H0.7z"/>
	<path class="st0" d="M15.5,4C15.8,4,16,3.8,16,3.6s-0.2-0.4-0.4-0.4H5.7c0,0.1,0.1,0.3,0.1,0.4c0,0.1,0,0.3-0.1,0.4H15.5z"/>
	<path class="st0" d="M0.7,7.2c-0.2,0-0.4,0.2-0.4,0.4S0.4,8,0.7,8h10c0-0.1-0.1-0.3-0.1-0.4c0-0.1,0-0.3,0.1-0.4H0.7z"/>
	<path class="st0" d="M15.5,8C15.8,8,16,7.8,16,7.6s-0.2-0.4-0.4-0.4h-1.9c0,0.1,0.1,0.3,0.1,0.4c0,0.1,0,0.3-0.1,0.4H15.5z"/>
	<path class="st0" d="M0.7,11.2c-0.2,0-0.4,0.2-0.4,0.4S0.4,12,0.7,12h4.9c0-0.1-0.1-0.3-0.1-0.4c0-0.1,0-0.3,0.1-0.4H0.7z"/>
	<path class="st0" d="M15.5,12c0.2,0,0.4-0.2,0.4-0.4s-0.2-0.4-0.4-0.4H8.6c0,0.1,0.1,0.3,0.1,0.4c0,0.1,0,0.3-0.1,0.4H15.5z"/>
	<path class="st0" d="M4.2,2.2c-0.8,0-1.4,0.6-1.4,1.4S3.4,5,4.2,5s1.4-0.6,1.4-1.4S4.9,2.2,4.2,2.2z M4.2,4.2
		c-0.3,0-0.6-0.3-0.6-0.6S3.8,3,4.2,3s0.6,0.3,0.6,0.6S4.5,4.2,4.2,4.2z"/>
	<path class="st0" d="M12.2,6.2c-0.8,0-1.4,0.6-1.4,1.4S11.4,9,12.2,9s1.4-0.6,1.4-1.4S12.9,6.2,12.2,6.2z M12.2,8.2
		c-0.3,0-0.6-0.3-0.6-0.6S11.8,7,12.2,7s0.6,0.3,0.6,0.6S12.5,8.2,12.2,8.2z"/>
	<path class="st0" d="M7.1,10.2c-0.8,0-1.4,0.6-1.4,1.4S6.3,13,7.1,13s1.4-0.6,1.4-1.4S7.9,10.2,7.1,10.2z M7.1,12.2
		c-0.3,0-0.6-0.3-0.6-0.6S6.8,11,7.1,11s0.6,0.3,0.6,0.6S7.4,12.2,7.1,12.2z"/>
</g>
<g>
	<path class="st0" d="M139.3,14.1c-0.1,0-0.1,0-0.2,0l-4.7-2.5l-4.7,2.5c-0.1,0.1-0.2,0-0.4,0c-0.1-0.1-0.2-0.2-0.1-0.3l0.9-5.3
		l-3.8-3.7c-0.1-0.1-0.1-0.2-0.1-0.3s0.1-0.2,0.3-0.2l5.3-0.8l2.4-4.8c0.1-0.1,0.2-0.2,0.3-0.2c0,0,0,0,0,0c0.1,0,0.2,0.1,0.3,0.2
		l2.4,4.8l5.3,0.8c0.1,0,0.2,0.1,0.3,0.2s0,0.3-0.1,0.3l-3.8,3.7l0.9,5.3c0,0.1,0,0.3-0.1,0.3C139.4,14,139.3,14.1,139.3,14.1z
		 M126.8,4.5l3.7,3.6c0.1,0.1,0.1,0.2,0.1,0.3l-0.9,5l4.5-2.4c0,0,0,0,0,0c0.1,0,0.2,0,0.3,0l4.5,2.4l-0.9-5c0-0.1,0-0.2,0.1-0.3
		l3.7-3.6l-5-0.7c-0.1,0-0.2-0.1-0.3-0.2L134.4-1l-2.3,4.6c0,0.1-0.1,0.2-0.2,0.2L126.8,4.5z M142.3,4.6
		C142.3,4.6,142.3,4.6,142.3,4.6L142.3,4.6z M126.5,4.6L126.5,4.6C126.5,4.6,126.5,4.6,126.5,4.6z M134.5-1.3L134.5-1.3
		C134.5-1.3,134.5-1.3,134.5-1.3z"/>
</g>
</svg>
