<svg xmlns="http://www.w3.org/2000/svg" width="11" height="11" viewBox="0 0 11 11"><defs><style>.cls-1{fill:#414042;}</style></defs><title>Asset 15</title><g id="Layer_2" data-name="Layer 2"><g id="Layer_2-2" data-name="Layer 2"><path class="cls-1" d="M10.76,0H.24A.24.24,0,0,0,0,.24V10.76A.24.24,0,0,0,.24,11H10.76a.24.24,0,0,0,.24-.24V.24A.24.24,0,0,0,10.76,0Zm-.24.48V2.82H.48V.48Zm-10,10V3.3h10v7.22Z"/><path class="cls-1" d="M1.66,2.18a.53.53,0,0,0,.53-.53.54.54,0,0,0-1.07,0A.54.54,0,0,0,1.66,2.18Z"/><path class="cls-1" d="M3.19,2.18a.53.53,0,0,0,.53-.53.52.52,0,0,0-.53-.53.53.53,0,0,0-.53.53A.53.53,0,0,0,3.19,2.18Z"/><path class="cls-1" d="M4.73,2.18a.53.53,0,0,0,.53-.53.54.54,0,0,0-1.07,0A.54.54,0,0,0,4.73,2.18Z"/><path class="cls-1" d="M5.5,4.75H2.2a.25.25,0,0,0,0,.49H5.5a.25.25,0,0,0,0-.49Z"/><path class="cls-1" d="M5.5,6.28H2.2a.25.25,0,0,0,0,.49H5.5a.25.25,0,0,0,0-.49Z"/><path class="cls-1" d="M5.5,7.81H2.2a.25.25,0,0,0,0,.49H5.5a.25.25,0,0,0,0-.49Z"/><path class="cls-1" d="M8.8,4.75H6.71A.24.24,0,0,0,6.47,5V8.05a.24.24,0,0,0,.24.25H8.8A.24.24,0,0,0,9,8.05V5A.24.24,0,0,0,8.8,4.75ZM8.56,7.81H7V5.24H8.56Z"/></g></g></svg>
