<?xml version="1.0" encoding="utf-8"?>
<!-- Generator: Adobe Illustrator 24.0.2, SVG Export Plug-In . SVG Version: 6.00 Build 0)  -->
<svg version="1.1" id="Layer_1" xmlns="http://www.w3.org/2000/svg" xmlns:xlink="http://www.w3.org/1999/xlink" x="0px" y="0px"
	 width="11" height="11" viewBox="0 0 11 11" style="enable-background:new 0 0 11 11;" xml:space="preserve">
<style type="text/css">
	.st0{fill:#434243;}
</style>
<title>Asset 15</title>
<g>
	<g>
		<path class="st0" d="M7.5,10.7H6c-0.8,0-1.5-0.3-2-0.8L1.8,7.6C1.6,7.4,1.5,7.2,1.5,6.9c0-0.3,0.1-0.5,0.3-0.7
			c0.4-0.4,1.1-0.4,1.5,0l0.6,0.6V2.9c0-0.6,0.5-1,1-1s1,0.5,1,1v1.6c0.3,0,0.7,0.1,0.9,0.3c0.5-0.2,1-0.1,1.3,0.3
			C8.3,5.1,8.4,5,8.5,5c0.6,0,1,0.5,1,1v2.6C9.5,9.8,8.6,10.7,7.5,10.7z M2.5,6.3c-0.1,0-0.3,0.1-0.4,0.2C2,6.6,2,6.7,2,6.9
			S2,7.2,2.1,7.3l2.3,2.3c0.4,0.4,1,0.7,1.7,0.7h1.4C8.3,10.2,9,9.5,9,8.7V6.1c0-0.3-0.2-0.5-0.5-0.5c-0.1,0-0.2,0-0.3,0.1L7.9,5.8
			L7.8,5.5C7.7,5.3,7.5,5.1,7.3,5.1C7.1,5.1,7,5.2,6.9,5.3L6.7,5.5L6.6,5.2C6.4,5,6.1,4.9,5.8,5L5.4,5.2V2.9c0-0.3-0.2-0.5-0.5-0.5
			S4.4,2.6,4.4,2.9v5L2.9,6.5C2.8,6.4,2.7,6.3,2.5,6.3z"/>
	</g>
	<g>
		<g>
			<path class="st0" d="M4.9,1.5c-0.1,0-0.3-0.1-0.3-0.3V0.5c0-0.1,0.1-0.3,0.3-0.3s0.3,0.1,0.3,0.3v0.7C5.2,1.4,5,1.5,4.9,1.5z"/>
		</g>
		<g>
			<path class="st0" d="M7,2.9H6.3C6.1,2.9,6,2.7,6,2.6s0.1-0.3,0.3-0.3H7c0.1,0,0.3,0.1,0.3,0.3S7.1,2.9,7,2.9z"/>
		</g>
		<g>
			<path class="st0" d="M3.5,2.9H2.8c-0.1,0-0.3-0.1-0.3-0.3s0.1-0.3,0.3-0.3h0.7c0.1,0,0.3,0.1,0.3,0.3S3.7,2.9,3.5,2.9z"/>
		</g>
		<g>
			<path class="st0" d="M4,2C4,2,3.9,2,3.9,1.9L3.2,1.2C3.1,1.1,3.1,1,3.2,0.9s0.3-0.1,0.4,0l0.7,0.7c0.1,0.1,0.1,0.3,0,0.4
				C4.2,2,4.1,2,4,2z"/>
		</g>
		<g>
			<path class="st0" d="M5.8,2C5.7,2,5.6,2,5.6,1.9c-0.1-0.1-0.1-0.3,0-0.4l0.7-0.7c0.1-0.1,0.3-0.1,0.4,0s0.1,0.3,0,0.4L5.9,1.9
				C5.9,2,5.8,2,5.8,2z"/>
		</g>
	</g>
</g>
</svg>
