<?xml version="1.0" encoding="utf-8"?>
<!-- Generator: Adobe Illustrator 24.0.2, SVG Export Plug-In . SVG Version: 6.00 Build 0)  -->
<svg version="1.1" id="Layer_1" xmlns="http://www.w3.org/2000/svg" xmlns:xlink="http://www.w3.org/1999/xlink" x="0px" y="0px"
	 viewBox="0 0 11 11" style="enable-background:new 0 0 11 11;" xml:space="preserve">
<style type="text/css">
	.st0{fill:#434243;}
</style>
<title>Asset 15</title>
<path class="st0" d="M7.8,2.5h1.9c0.1,0.2,0.3,0.4,0.6,0.4c0.4,0,0.7-0.3,0.7-0.7s-0.3-0.7-0.7-0.7c-0.3,0-0.5,0.2-0.6,0.4H6.1V1.6
	H4.8V2H1.3C1.2,1.8,0.9,1.6,0.7,1.6C0.3,1.6,0,1.9,0,2.3s0.3,0.7,0.7,0.7c0.3,0,0.5-0.2,0.6-0.4h2C1.8,3.3,0.8,4.7,0.7,6.4H0.1v1.6
	h1.6V6.4H1.2c0.1-1.9,1.6-3.5,3.6-3.8v0.4h0.3L3.1,5.9l1,1.4c0,0,0,0.1,0,0.2c0,0.3,0.2,0.5,0.4,0.5v1c0,0.2,0.2,0.4,0.4,0.4h1.3
	c0.2,0,0.4-0.2,0.4-0.4v-1C6.8,7.8,7,7.6,7,7.4c0-0.1,0-0.1,0-0.1l1-1.4L5.8,2.9h0.3V2.5c2.1,0.3,3.6,1.9,3.7,3.8H9.2v1.6h1.6V6.4
	h-0.6C10.3,4.7,9.3,3.3,7.8,2.5z M1.2,7.4H0.6V6.9h0.6V7.4z M10.3,2.1c0.1,0,0.2,0.1,0.2,0.2c0,0.2-0.3,0.2-0.3,0
	C10.2,2.2,10.2,2.1,10.3,2.1z M5.3,2.1h0.3v0.3H5.3V2.1z M0.5,2.3c0-0.1,0.1-0.2,0.2-0.2s0.2,0.1,0.2,0.2C0.8,2.4,0.5,2.4,0.5,2.3z
	 M5.6,5.3c0,0.1-0.2,0.1-0.2,0c0-0.1,0.1-0.1,0.1-0.1S5.6,5.2,5.6,5.3z M6.5,7.4C6.5,7.4,6.4,7.5,6.5,7.4L4.6,7.5c0,0-0.1,0-0.1-0.1
	c0,0,0-0.1,0.1-0.1L6.5,7.4C6.4,7.3,6.5,7.3,6.5,7.4z M6.1,8.9H4.9V8h1.2V8.9z M6.6,6.8H6.4H4.6H4.4L3.7,5.9l1.5-2.2v1.1
	C5,4.8,4.9,5.1,4.9,5.3c0,0.3,0.3,0.6,0.6,0.6s0.6-0.3,0.6-0.6c0-0.3-0.2-0.5-0.4-0.6V3.7l1.5,2.2L6.6,6.8z M10.4,7.4H9.7V6.9h0.6
	V7.4z"/>
</svg>
