<?xml version="1.0" encoding="utf-8"?>
<!-- Generator: Adobe Illustrator 24.0.2, SVG Export Plug-In . SVG Version: 6.00 Build 0)  -->
<svg version="1.1" id="Layer_1" xmlns="http://www.w3.org/2000/svg" xmlns:xlink="http://www.w3.org/1999/xlink" x="0px" y="0px"
	 viewBox="0 0 11 11" style="enable-background:new 0 0 11 11;" xml:space="preserve">
<style type="text/css">
	.st0{fill:#FFFFFF;}
</style>
<title>Asset 15</title>
<g>
	<path class="st0" d="M10.5,5.5c0,2.8-2.2,5-5,5s-5-2.2-5-5s2.2-5,5-5S10.5,2.7,10.5,5.5z M3.5,9.5L1.4,3.7C1.1,4.2,1,4.8,1,5.5
		C1,7.3,2,8.8,3.5,9.5z M7.7,8.2l0.4-1.5c0.2-0.6,0.3-1.1,0.3-1.5C8.4,4.6,8.2,4.3,8,4C7.9,3.7,7.7,3.3,7.7,3c0-0.4,0.3-0.8,0.8-0.8
		c0,0,0,0,0.1,0C7.7,1.5,6.7,1,5.5,1c-1.6,0-3,0.8-3.8,2C1.9,3,2,3,2,3c0.5,0,1.2,0,1.2,0c0.2,0,0.3,0.3,0,0.4c0,0-0.2,0-0.5,0
		l1.6,4.9l1-2.9l-0.6-2c-0.2,0-0.5,0-0.5,0C4,3.3,4,3,4.2,3c0,0,0.8,0,1.2,0c0.5,0,1.2,0,1.2,0c0.2,0,0.3,0.3,0,0.4c0,0-0.2,0-0.5,0
		L7.7,8.2z M7,9.7L7,9.7L5.6,5.9L4.2,9.8C4.6,9.9,5.1,10,5.5,10C6,10,6.5,9.9,7,9.7z M10,5.5C10,4.7,9.8,4,9.4,3.3
		c0,0.1,0,0.3,0,0.5c0,0.5-0.1,1-0.3,1.6l-1.4,4C9.1,8.6,10,7.2,10,5.5z"/>
</g>
</svg>
